<svg xmlns="http://www.w3.org/2000/svg" viewBox="0 0 200 200">
  <rect width="200" height="200" rx="40" fill="#1B365D"/>
  <circle cx="100" cy="100" r="86" fill="none" stroke="#F2C744" stroke-width="3.5"/>
  <circle cx="100" cy="100" r="79" fill="none" stroke="#F2C744" stroke-width="1" stroke-dasharray="2 4"/>
  <circle cx="100" cy="100" r="74" fill="none" stroke="#F2C744" stroke-width="2"/>
  <g transform="translate(40, 30)">
    <path d="M60 20 C30 20 18 50 18 63 L102 63 C102 50 90 20 60 20Z" fill="none" stroke="#F2C744" stroke-width="2.5"/>
    <rect x="52" y="9" width="16" height="15" fill="none" stroke="#F2C744" stroke-width="2"/>
    <circle cx="60" cy="9" r="3" fill="#F2C744"/>
    <circle cx="42" cy="45" r="4" fill="#F2C744"/>
    <circle cx="60" cy="41" r="4" fill="#F2C744"/>
    <circle cx="78" cy="45" r="4" fill="#F2C744"/>
    <rect x="24" y="63" width="7" height="24" fill="#F2C744"/>
    <rect x="40" y="63" width="7" height="24" fill="#F2C744"/>
    <rect x="56" y="63" width="8" height="24" fill="#F2C744"/>
    <rect x="73" y="63" width="7" height="24" fill="#F2C744"/>
    <rect x="89" y="63" width="7" height="24" fill="#F2C744"/>
    <rect x="16" y="87" width="88" height="6" fill="#F2C744"/>
  </g>
  <g fill="#F2C744">
    <polygon points="28,100 30,105 35,105 31,108 32.5,113 28,110 23.5,113 25,108 21,105 26,105"/>
    <polygon points="172,100 174,105 179,105 175,108 176.5,113 172,110 167.5,113 169,108 165,105 170,105"/>
  </g>
  <text x="100" y="155" text-anchor="middle" fill="#F2C744" font-family="sans-serif" font-weight="bold" font-size="11" letter-spacing="2">EST 2025</text>
</svg>
